<?xml version="1.0" encoding="utf-8" ?>
<svg xmlns="http://www.w3.org/2000/svg" xmlns:xlink="http://www.w3.org/1999/xlink" width="500" height="500">
	<path fill="#FEFEFE" transform="scale(0.488281 0.488281)" d="M0 0L1024 0L1024 1024L0 1024L0 0Z"/>
	<path transform="scale(0.488281 0.488281)" d="M501.139 26.4123C516.888 28.6027 533.281 32.7207 548.467 37.4693C629.903 62.9341 705.015 115.073 755.289 184.357C764.882 197.577 774.062 211.576 781.916 225.89C785.186 231.85 787.945 238.089 791.103 244.112Q792.934 230.93 792.847 217.621C792.734 178.974 782.126 146.894 760.586 114.821Q753.896 104.707 746.2 95.3364Q738.503 85.9658 729.882 77.4384C785.682 99.6076 839.885 149.26 868.856 201.614C887.968 236.153 900.243 271.883 904.032 311.332C904.593 317.169 904.778 322.995 904.806 328.857C904.834 334.533 904.073 341.351 905.487 346.798C906.99 352.59 911.986 360.627 914.568 366.407Q922.078 383.035 927.521 400.449Q928.663 403.908 929.739 407.388Q930.815 410.867 931.825 414.367Q932.835 417.867 933.779 421.384Q934.723 424.902 935.6 428.438Q936.477 431.973 937.287 435.524Q938.097 439.075 938.84 442.641Q939.583 446.207 940.258 449.786Q940.934 453.365 941.541 456.957Q942.149 460.548 942.688 464.15Q943.228 467.753 943.699 471.364Q944.171 474.976 944.574 478.596Q944.977 482.216 945.311 485.843Q945.646 489.47 945.911 493.103Q946.177 496.735 946.374 500.372Q946.571 504.01 946.7 507.65Q946.828 511.29 946.888 514.932Q946.947 518.574 946.938 522.216Q946.929 525.858 946.85 529.5Q946.772 533.142 946.625 536.781Q946.478 540.42 946.262 544.056Q946.047 547.692 945.762 551.324Q945.478 554.955 945.124 558.58Q944.771 562.205 944.35 565.823Q943.928 569.441 943.438 573.05Q942.948 576.66 942.391 580.259Q941.833 583.859 941.206 587.447Q940.581 591.035 939.887 594.611Q939.193 598.186 938.432 601.748Q937.671 605.31 936.843 608.857Q936.014 612.404 935.119 615.935Q934.224 619.466 933.262 622.979Q932.3 626.492 931.272 629.986Q930.295 633.341 929.259 636.678Q928.224 640.015 927.13 643.334Q926.035 646.652 924.883 649.951Q923.731 653.25 922.521 656.528Q921.311 659.806 920.043 663.062Q918.776 666.319 917.451 669.552Q916.127 672.786 914.746 675.995Q913.365 679.205 911.928 682.39Q910.49 685.575 908.997 688.734Q907.505 691.894 905.956 695.026Q904.408 698.159 902.805 701.264Q901.202 704.369 899.545 707.445Q897.888 710.521 896.176 713.568Q894.465 716.614 892.701 719.63Q890.937 722.647 889.12 725.631Q887.303 728.616 885.433 731.568Q883.564 734.52 881.643 737.439Q879.723 740.358 877.751 743.243Q875.779 746.128 873.757 748.978Q871.735 751.827 869.663 754.641Q867.591 757.455 865.47 760.232Q863.349 763.009 861.18 765.748Q859.01 768.487 856.793 771.188Q854.576 773.888 852.311 776.55Q850.047 779.211 847.736 781.832Q845.426 784.453 843.069 787.033Q840.713 789.614 838.311 792.152Q835.91 794.69 833.464 797.186Q831.019 799.682 828.53 802.134Q826.041 804.587 823.509 806.995Q820.977 809.403 818.404 811.767Q815.83 814.13 813.215 816.448C804.306 824.418 794.731 831.857 785.051 838.87C779.754 842.708 773.399 845.99 768.791 850.642C764.976 854.493 761.961 859.705 758.809 864.137Q751.83 873.955 744.123 883.214Q738.885 889.474 733.364 895.484Q727.842 901.495 722.048 907.243Q716.254 912.992 710.2 918.466Q704.147 923.941 697.846 929.129Q691.546 934.317 685.012 939.208Q678.478 944.1 671.725 948.683Q664.971 953.267 658.013 957.533Q651.055 961.799 643.907 965.739Q635.74 970.29 627.299 974.312Q618.859 978.335 610.18 981.811Q601.5 985.288 592.618 988.206Q583.735 991.123 574.684 993.469C570.098 994.663 565.208 996.296 560.46 996.464C553.073 996.727 541.847 992.902 534.62 990.775C460.823 969.056 387.794 911.127 350.93 843.558L345.744 833.456C339.446 871.164 341.439 925.614 351.568 962.457C341.028 953.567 330.155 944.859 320.042 935.492Q312.867 928.832 305.92 921.934Q298.974 915.037 292.263 907.909Q285.552 900.782 279.085 893.433Q272.617 886.084 266.401 878.521Q260.184 870.959 254.226 863.191Q248.267 855.424 242.573 847.461Q236.879 839.498 231.457 831.347Q226.034 823.197 220.888 814.869C178.005 745.774 151.697 660.582 157.816 578.819C159.049 562.347 161.929 546.638 165.674 530.586C133.378 558.121 104.363 600.114 82.6548 636.46C82.4072 629.572 81.4452 622.641 81.0106 615.747Q80.0562 598.23 80.553 580.695C82.9686 499.61 109.498 417.925 158.593 353.005C190.426 310.911 226.897 279.11 273.64 254.531Q280.697 250.738 287.938 247.306Q295.178 243.875 302.583 240.815Q309.988 237.755 317.538 235.074Q325.089 232.393 332.765 230.098C350.877 224.799 369.13 221.466 387.795 218.861C375.084 213.151 362.317 207.666 349.117 203.169C309.862 189.793 266.983 183.315 225.548 183.515C246.621 171.02 268.215 160.493 291.36 152.379C394.74 116.136 505.353 126.043 603.43 173.309Q602.578 170.599 601.675 167.906Q600.772 165.213 599.818 162.538Q598.863 159.862 597.859 157.206Q596.854 154.549 595.799 151.911Q594.744 149.274 593.639 146.657Q592.534 144.041 591.38 141.445Q590.226 138.85 589.022 136.277Q587.819 133.704 586.567 131.154Q585.315 128.605 584.015 126.079Q582.715 123.554 581.367 121.053Q580.019 118.553 578.624 116.079Q577.229 113.604 575.788 111.157Q574.346 108.71 572.858 106.29Q571.37 103.871 569.837 101.48Q568.303 99.0887 566.724 96.7274Q565.146 94.366 563.523 92.035Q561.899 89.704 560.232 87.4043Q558.565 85.1045 556.855 82.8368Q555.144 80.5691 553.391 78.3342Q551.638 76.0994 549.843 73.8982Q548.047 71.697 546.21 69.5303Q544.374 67.3636 542.496 65.2322Q540.619 63.1007 538.701 61.0053Q536.783 58.9098 534.826 56.8512Q532.869 54.7925 530.874 52.7713Q528.878 50.7502 526.844 48.7673Q524.81 46.7843 522.739 44.8404Q520.668 42.8964 518.561 40.9921Q516.453 39.0878 514.31 37.2238Q512.167 35.3598 509.988 33.5368Q507.81 31.7139 505.597 29.9326Q503.385 28.1513 501.139 26.4123Z"/>
	<path fill="#FEFEFE" transform="scale(0.488281 0.488281)" d="M873.004 255.839C878.102 266.416 880.62 284.184 882.338 295.934C888.379 337.231 881.378 373.198 856.112 406.833C828.047 444.195 784.567 458.051 740.342 464.176L730.598 465.61C740.265 461.594 749.999 458.041 759.504 453.596C791.078 438.833 821.086 417.818 843.184 390.608C863.456 365.646 872.355 341.475 874.941 309.664Q876.325 293.015 875.315 276.34C874.842 269.478 873.73 262.677 873.004 255.839Z"/>
	<path fill="#FEFEFE" transform="scale(0.488281 0.488281)" d="M798.824 146.327C805.01 151.001 821.445 178.522 825.445 186.51C848.748 233.051 854.073 285.278 837.436 334.875C824.88 372.304 801.268 401.502 770.886 426.154C764.346 431.461 757.149 437.954 749.593 441.715C767.114 424.302 783.402 406.437 795.944 385.056C798.744 380.289 801.274 375.33 803.756 370.39C823.75 330.584 833.938 277.865 828.468 233.578C827.652 226.966 826.992 219.753 824.885 213.417C825.611 224.176 825.715 234.74 824.04 245.436C820.113 270.517 807.438 294.289 786.716 309.449C791.904 302.492 796.318 295.459 799.955 287.562C817.357 249.777 816.702 203.523 805.268 164.037C803.524 158.013 801.015 152.201 798.824 146.327Z"/>
	<path fill="#FEFEFE" transform="scale(0.488281 0.488281)" d="M416.111 236.734C433.126 236.34 450.402 237.919 467.27 240.03C472.595 240.696 478.179 241.117 483.381 242.445C480.346 243.394 470.637 242.745 466.895 242.866Q454.655 243.211 442.456 244.262C402.972 247.773 365.425 256.091 328.549 270.726Q325.565 271.939 322.605 273.21Q319.645 274.481 316.711 275.811Q313.777 277.14 310.87 278.527Q307.962 279.915 305.083 281.359Q302.204 282.803 299.354 284.304Q296.503 285.805 293.683 287.362Q290.863 288.919 288.075 290.531Q285.286 292.143 282.53 293.81Q279.773 295.477 277.05 297.198Q274.327 298.919 271.639 300.694Q268.951 302.469 266.298 304.296Q263.645 306.123 261.029 308.003Q258.413 309.882 255.834 311.812Q253.255 313.743 250.715 315.724Q248.175 317.705 245.675 319.736Q243.175 321.767 240.715 323.847Q238.255 325.927 235.837 328.055Q233.419 330.183 231.043 332.359Q228.667 334.534 226.335 336.756Q224.003 338.978 221.715 341.245Q219.427 343.513 217.184 345.825Q214.941 348.137 212.745 350.493Q210.548 352.85 208.398 355.249Q206.249 357.648 204.147 360.089Q202.045 362.53 199.992 365.012Q197.938 367.494 195.935 370.016Q193.931 372.538 191.977 375.099Q190.023 377.66 188.121 380.259Q186.218 382.859 184.367 385.495Q182.516 388.131 180.717 390.804Q178.919 393.476 177.173 396.183Q175.428 398.891 173.736 401.632C168.349 410.524 162.87 419.836 158.753 429.381C173.621 407.009 192.178 388.781 212.705 371.557C266.325 326.566 341.271 297.041 410.338 288.721C421.929 287.325 434.696 285.268 446.354 286.294Q440.259 287.294 434.194 288.461Q428.13 289.628 422.099 290.961Q416.068 292.294 410.077 293.792Q404.085 295.289 398.136 296.951Q392.188 298.613 386.287 300.437Q380.387 302.262 374.539 304.247Q368.69 306.233 362.899 308.378Q357.107 310.523 351.377 312.827Q345.646 315.13 339.981 317.59Q334.316 320.05 328.72 322.664Q323.125 325.279 317.603 328.046Q312.081 330.813 306.638 333.73Q301.194 336.647 295.832 339.713Q290.471 342.779 285.195 345.991Q279.92 349.202 274.735 352.557Q269.549 355.913 264.458 359.409Q261.56 361.453 258.702 363.552Q255.844 365.65 253.025 367.802Q250.207 369.954 247.43 372.159Q244.652 374.364 241.917 376.62Q239.182 378.877 236.49 381.185Q233.798 383.493 231.15 385.852Q228.502 388.21 225.899 390.618Q223.296 393.026 220.738 395.483Q218.181 397.939 215.671 400.444Q213.16 402.948 210.698 405.5Q208.235 408.051 205.821 410.648Q203.407 413.246 201.042 415.888Q198.678 418.531 196.363 421.217Q194.049 423.904 191.786 426.634Q189.522 429.364 187.311 432.136Q185.1 434.908 182.941 437.721Q180.782 440.534 178.677 443.388Q176.572 446.241 174.521 449.134Q172.47 452.027 170.474 454.958Q168.478 457.889 166.537 460.857Q164.597 463.825 162.713 466.829Q160.829 469.833 159.002 472.872Q157.175 475.911 155.406 478.984Q153.636 482.057 151.925 485.163Q150.214 488.269 148.562 491.407Q146.91 494.544 145.317 497.713Q143.725 500.881 142.192 504.079Q140.66 507.276 139.188 510.502Q137.716 513.729 136.305 516.982Q134.894 520.235 133.545 523.514Q132.196 526.794 130.909 530.098Q129.621 533.402 128.397 536.73C145.404 514.698 166.766 494.849 189.567 478.942C177.155 493.321 162.474 505.486 149.276 519.073C130.964 537.924 115.483 558.144 100.207 579.447C100.343 564.167 102.689 549.462 105.004 534.406C112.327 486.774 129.424 434.345 154.813 393.111C166.922 373.446 180.975 355.767 196.69 338.873C254.476 276.748 330.982 239.803 416.111 236.734Z"/>
	<path fill="#FEFEFE" transform="scale(0.488281 0.488281)" d="M665.429 290.914C666.092 291.499 665.945 291.315 666.423 291.902C672.162 298.93 677.153 306.748 681.799 314.537C697.345 340.605 705.478 365.703 709.05 395.861C710.594 408.895 711.228 421.929 709.93 435.02C705.717 477.519 688.438 512.376 659.422 543.424C645.326 558.507 630.269 572.146 613.492 584.207C592.795 599.088 570.276 611.135 547.749 622.952C498.403 648.838 442.662 674.368 399.679 709.661C390.574 717.137 381.428 724.737 373.483 733.47C345.463 764.268 324.911 809.122 320.842 850.456C319.721 857.85 320.048 865.809 319.792 873.286C318.521 867.61 318.559 861.315 318.585 855.507C318.678 835.437 321.417 816.261 326.99 796.976C339.365 754.154 365.371 713.754 396.718 682.334C404.052 674.983 411.961 668.295 419.846 661.549C463.546 624.157 512.904 594.369 559.841 561.374C596.459 535.633 629.657 509.405 654.748 471.832C661.295 462.027 667.287 451.971 671.862 441.074C684.913 409.993 686.112 376.373 681.45 343.397C680.046 333.467 678.267 323.274 675.267 313.695C672.791 305.786 668.659 299.019 665.627 291.423L665.429 290.914Z"/>
	<path fill="#FEFEFE" transform="scale(0.488281 0.488281)" d="M549.81 350.533C549.487 353.413 546.01 357.49 544.292 359.952C524.061 388.936 494.638 409.377 466.71 430.324C453.786 440.017 440.938 450.201 428.539 460.557Q414.557 472.236 401.308 484.74Q388.059 497.245 375.591 510.528C338.974 550.006 309.55 594.448 291.803 645.514C270.045 708.119 264.837 784.833 283.489 848.922C287.861 863.947 294.13 878.626 300.948 892.691C294.385 884.608 287.382 876.863 280.935 868.699C269.713 854.486 259.109 839.265 249.163 824.134C242.862 814.549 237.254 804.498 231.634 794.504C196.159 731.42 173.537 660.905 177.284 587.825C180.852 518.234 208.603 465.174 259.957 418.831C294.916 387.546 335.33 363.627 381.503 353.507C365.984 360.73 350.75 368.598 336.508 378.143C289.8 409.444 255.025 455.918 234.013 507.753Q232.487 511.569 231.055 515.422Q229.623 519.275 228.287 523.162Q226.95 527.048 225.71 530.967Q224.469 534.885 223.326 538.833Q222.182 542.781 221.136 546.756Q220.09 550.731 219.142 554.73Q218.194 558.73 217.344 562.751Q216.495 566.773 215.745 570.814Q214.995 574.855 214.345 578.913Q213.695 582.972 213.144 587.045Q212.594 591.118 212.144 595.204Q211.694 599.289 211.345 603.385Q210.996 607.48 210.748 611.583Q210.5 615.685 210.353 619.793Q210.206 623.901 210.16 628.01Q210.114 632.12 210.169 636.23Q210.224 640.34 210.38 644.447Q210.536 648.554 210.794 652.657Q211.051 656.759 211.409 660.853Q211.768 664.948 212.227 669.032Q212.686 673.117 213.245 677.189Q213.804 681.261 214.463 685.318Q215.123 689.375 215.882 693.414Q216.641 697.454 217.499 701.473Q218.357 705.493 219.314 709.49Q220.271 713.487 221.326 717.46Q222.381 721.432 223.534 725.378Q224.686 729.323 225.935 733.239Q227.184 737.154 228.53 741.038Q229.875 744.922 231.315 748.772Q232.756 752.621 234.29 756.434Q235.825 760.247 237.453 764.021C233.998 746.511 232.293 727.939 232.565 710.085C233.407 654.934 249.704 598.722 281.887 553.559C298.976 529.577 321.382 507.628 344.346 489.305C363.628 473.921 384.977 460.258 406.076 447.511C423.868 436.762 442.169 426.984 460.047 416.424C492.043 397.524 523.036 376.436 549.81 350.533Z"/>
	<path fill="#FEFEFE" transform="scale(0.488281 0.488281)" d="M700.838 523.506C732.022 555.537 754.437 601.381 762.639 645.277C765.586 661.055 766.626 676.563 766.6 692.588C772.87 679.033 782.645 663.58 794.333 654.228C800.575 649.234 809.49 644.663 817.723 645.768C821.643 646.295 824.875 648.226 827.166 651.447C835.478 663.133 835.381 687.701 832.76 701.285C828.785 721.881 812.879 761.957 794.965 773.836C789.087 777.734 781.462 780.06 774.452 778.428C768.129 776.957 764.419 772.093 761.173 766.887C756.72 777.158 752.461 787.593 747.533 797.643Q744.774 803.292 741.801 808.831Q738.827 814.369 735.642 819.789Q732.457 825.21 729.067 830.503Q725.676 835.797 722.084 840.956Q718.493 846.116 714.705 851.133Q710.917 856.151 706.94 861.019Q702.962 865.887 698.8 870.598Q694.638 875.31 690.298 879.858Q687.513 882.765 684.639 885.585Q681.766 888.404 678.805 891.132Q675.844 893.86 672.8 896.494Q669.756 899.129 666.631 901.667Q663.506 904.205 660.303 906.644Q657.1 909.083 653.823 911.421Q650.546 913.759 647.197 915.994Q643.848 918.228 640.432 920.357Q637.015 922.486 633.533 924.508Q630.052 926.529 626.509 928.441Q622.965 930.352 619.365 932.152Q615.764 933.952 612.108 935.639Q608.453 937.326 604.747 938.898Q601.04 940.47 597.287 941.925Q593.533 943.38 589.736 944.718Q585.939 946.056 582.102 947.274C575.512 949.38 564.504 953.054 557.825 953.178C544.874 950.189 532.262 946.407 519.976 941.326C469.67 920.52 430.406 885.962 398.988 841.859C392.311 832.485 385.665 822.908 380.108 812.815C374.066 801.842 369.161 790.238 364.358 778.686C398.253 716.006 485.776 678.141 546.405 646.361C576.413 630.631 605.998 614.198 633.181 593.858C660.189 573.649 681.566 551.037 700.838 523.506Z"/>
	<path transform="scale(0.488281 0.488281)" d="M676.154 638.469C676.616 638.54 676.303 638.458 676.976 638.982C677.389 652.116 679.005 670.978 669.383 681.108C665.374 685.328 659.753 687.409 653.974 687.339C647.525 687.261 642.262 684.065 637.962 679.488C629.436 668.085 631.677 652.189 631.945 638.835C646.583 643.527 661.841 645.21 676.154 638.469Z"/>
</svg>
