<?xml version="1.0" encoding="utf-8" ?>
<svg xmlns="http://www.w3.org/2000/svg" xmlns:xlink="http://www.w3.org/1999/xlink" width="1356" height="418">
	<path fill="white" fill-opacity="0.98823529" d="M814.786 362.023C815.926 361.774 817.339 361.355 818.505 361.429C820.627 361.565 822.084 363.728 823.389 365.228C826.055 365.102 826.203 362.142 828.889 361.416C830.191 361.525 830.959 361.398 832.004 362.214L830.084 364.009C830.054 364.298 829.991 364.524 829.873 364.79C828.703 367.42 827.98 368.874 825.296 369.866C820.228 369.375 818.334 364.932 814.786 362.023Z"/>
	<path fill="white" d="M864.173 373.285C865.96 373.191 867.512 373.061 869.209 373.757C869.927 376.704 870.031 408.085 869.136 410.185C868.675 411.267 867.777 411.292 866.735 411.67C865.758 411.712 864.719 411.55 863.742 411.474C863.623 411.167 863.503 410.835 863.453 410.509C862.867 406.686 863.063 374.691 864.173 373.285Z"/>
	<path fill="white" d="M1100.32 373.285C1102.4 373.104 1104.32 372.926 1106.4 373.331C1107.32 377.983 1107.71 402.824 1105.5 406.26C1108.61 406.302 1111.7 406.206 1114.81 406.103C1118.19 405.99 1125.72 405.075 1128.31 407.502C1128.73 409.169 1128.42 409.75 1127.9 411.392C1126.16 412.446 1103.81 411.7 1100.26 411.737C1100.41 411.51 1100.55 411.28 1100.67 411.029C1102.09 407.904 1101.77 376.939 1100.32 373.285Z"/>
	<path fill="white" d="M810.188 373.285Q810.707 373.256 811.227 373.236C815.137 373.09 838.361 372.181 840.11 373.812C840.128 374.47 840.086 375.111 839.914 375.75C838.339 381.575 818.974 403.252 813.423 406.4C822.027 406.366 831.75 405.045 840.171 406.726C840.486 407.173 840.652 407.563 840.677 408.121C840.749 409.679 840.914 410.431 839.884 411.601L836.079 411.608C832.716 411.593 809.293 412.309 808.028 411.668C807.686 411.495 807.201 410.96 806.896 410.698C806.179 403.282 829.954 385.146 831.81 377.985C831.839 377.874 831.862 377.763 831.888 377.652C825.484 377.72 818.486 378.297 812.13 377.545C810.382 377.338 809.874 377.223 808.799 375.869C809.07 374.582 809.357 374.249 810.188 373.285Z"/>
	<path fill="white" d="M998.902 372.623C1003.77 372.124 1009.34 371.609 1013.97 373.526C1016.55 374.598 1018.69 376.546 1019.72 379.183C1020.53 381.265 1020.68 382.972 1019.83 384.985C1015.74 385.719 1011.6 377.445 1006.56 376.074C1004.39 375.484 1002.46 375.751 1000.56 376.938C998.457 378.244 996.451 380.542 995.856 382.96C997.676 389.444 1014.45 389.363 1020.18 394.127C1021.83 395.505 1022.94 397.178 1023.09 399.36C1023.29 402.075 1021.56 405.455 1019.84 407.491C1016.9 410.964 1012.8 411.438 1008.55 411.812C1005.66 411.927 1002.4 412.011 999.603 411.227C995.853 410.177 992.106 407.325 990.231 403.893C989.315 402.215 989.204 401.068 989.716 399.308L991.133 398.595C996.823 398.832 996.063 404.603 1000.82 406.732C1003.82 408.079 1009.33 408.029 1012.34 406.769C1013.93 406.103 1015.63 404.824 1016.28 403.182C1016.8 401.894 1016.71 400.298 1016.12 399.051C1013.68 393.936 1001.74 393.596 996.794 391.73C994.504 390.866 992.453 389.819 991.425 387.458L991.289 387.136C989.257 382.433 991.6 380.519 992.438 376.213C992.455 376.126 992.468 376.039 992.484 375.952C994.734 374.974 996.81 373.905 998.902 372.623Z"/>
	<path fill="white" d="M1329.49 404.539C1332.84 406.039 1336.09 407.372 1339.8 407.544C1342.78 407.682 1345.85 406.995 1348.07 404.877C1349.54 403.464 1350.06 402.157 1350.1 400.143C1347.65 392.449 1331.95 394.992 1326.15 389.02C1324.66 387.481 1323.69 385.542 1323.75 383.363C1323.83 380.199 1325.63 377.091 1327.9 374.954C1330.57 372.435 1334.1 371.663 1337.66 371.769C1342.97 371.927 1347.97 373.471 1351.65 377.465C1352.91 378.831 1354.42 380.877 1354.29 382.797C1354.25 383.507 1353.73 383.745 1353.23 384.202C1346.96 384.904 1347.01 378 1341.17 376.693C1338.41 376.074 1334.87 376.549 1332.5 378.132C1330.77 379.284 1330.02 380.587 1329.65 382.591C1331.67 390.433 1345.63 388.589 1351.78 392.831C1353.42 393.958 1354.83 395.4 1355.19 397.412C1356.01 399.852 1356.25 401.539 1355.23 404.025C1355.19 404.471 1355.03 404.844 1354.84 405.247C1353.74 407.687 1351.65 409.43 1349.18 410.375C1343.2 412.653 1335.06 412.502 1329.21 409.878C1326.72 408.757 1324.01 407.002 1323.07 404.298C1322.42 402.45 1322.8 401.042 1323.59 399.325C1324.92 398.315 1325.06 398.137 1326.73 398.211C1328.49 399.789 1329.26 401.844 1329.47 404.231C1329.48 404.333 1329.48 404.436 1329.49 404.539Z"/>
	<path fill="white" d="M1057.33 373.285C1058.87 373.164 1060.96 372.796 1062.44 373.266C1063.5 373.605 1064.28 374.427 1064.78 375.431C1066.69 379.3 1079.75 409.463 1079.22 411.193C1077.79 412.017 1077.28 412.355 1075.63 412.375C1072.1 410.936 1070.55 403.485 1069.13 400.108C1067.46 399.182 1063.86 399.641 1061.86 399.639L1051.12 399.617C1051.14 399.682 1051.17 399.746 1051.19 399.812C1051.78 401.89 1049.41 406.919 1048.28 408.824C1047.1 410.836 1045.96 411.86 1043.71 412.458C1042.57 411.912 1042.44 411.743 1041.76 410.67C1046.24 398.263 1051.44 385.085 1057.33 373.285ZM1059.64 378.584C1059.33 383.364 1055.95 391.052 1053.42 395.113C1055.56 395.165 1057.73 395.293 1059.87 395.252L1066.63 395.177C1065.8 389.91 1062.78 384.16 1060.82 379.166L1059.64 378.584Z"/>
	<path fill="white" d="M1281.29 373.285C1282.64 373.158 1285.04 372.719 1286.27 373.274C1289.77 374.848 1301.79 405.881 1303.46 410.797C1302.81 412.004 1302.42 412.178 1301.27 412.84C1300.84 412.836 1300.44 412.819 1300.03 412.644C1296.28 411.04 1294.11 403.138 1292.89 399.5C1290.93 399.305 1288.94 399.517 1286.98 399.638L1275.15 399.602C1275.43 402.163 1274.14 405.505 1273.06 407.792C1272.36 409.254 1270.92 410.854 1269.33 411.342C1268.06 411.733 1267.29 411.614 1266.13 411.024C1266.32 406.304 1278.56 378.914 1281.29 373.285ZM1283.22 379.246C1283.48 383.23 1279.48 391.841 1277.35 395.189L1284.33 395.253L1290.34 395.246C1291.17 392.394 1286.32 383.02 1285.06 380.076C1284.41 379.582 1284.04 379.344 1283.22 379.246Z"/>
	<path fill="white" d="M642.935 372.622C646.427 372.162 650.336 371.95 653.826 372.375C658.118 372.898 662.321 374.507 665.014 378.033C666.216 379.607 667.458 382.144 667.194 384.138L665.928 385.026C660.415 385.346 661.103 380.683 657.37 378.033C654.887 376.27 651.585 376.047 648.676 376.612C644.502 377.423 640.779 379.764 638.416 383.326C636.009 386.953 635.213 391.161 636.103 395.415C636.914 399.29 638.732 403.743 642.231 405.911C645.404 407.876 649.584 407.821 653.089 406.892C656.445 406.003 659.836 403.677 661.522 400.586C662.323 399.118 662.248 397.938 661.765 396.39C660.03 395.322 658.641 395.623 656.647 395.65C653.89 395.77 651.875 396.043 649.497 394.477L649.326 393.291C649.533 393.029 649.496 393.062 649.769 392.787C652.725 389.802 662.941 391.007 666.911 391.09C668.997 394.413 668.133 407.568 667.328 411.633L666.097 412.273C664.206 411.408 663.824 410.004 662.842 408.228C659.362 407.56 653.089 413.925 643.068 411.163C638.681 409.953 635.105 406.891 632.902 402.946C629.926 397.615 629.494 391.012 631.139 385.185C633.073 378.338 637.083 375.932 642.935 372.622Z"/>
	<path fill="white" d="M1210.82 373.285C1213.01 373.12 1215.32 372.737 1217.42 373.563C1220.95 377.363 1237.46 399.258 1237.32 403.174C1240.59 397.371 1237.66 381.259 1238.46 373.866C1238.93 373.597 1239.47 373.283 1240 373.176C1241.6 372.854 1242.32 373.186 1243.6 374.015C1244.18 374.95 1244.55 375.89 1244.7 376.986C1245.24 380.868 1244.29 385.041 1244.3 388.969C1244.32 395.693 1245.34 402.762 1244.61 409.43C1244.52 410.316 1244.12 411.017 1243.59 411.717C1242.09 411.813 1240.07 411.813 1238.75 411.046C1230.67 406.354 1224.36 386.653 1215.5 381.157Q1215.68 381.562 1215.84 381.973C1217.92 387.384 1217.49 406.296 1215.16 411.662L1215.23 411.117L1213.24 412.1C1208.13 404.385 1212.89 383.343 1210.86 373.482L1210.82 373.285Z"/>
	<path fill="white" d="M692.558 373.285C701.031 372.552 716.788 371.236 723.496 376.927C724.773 378.01 725.764 379.518 725.884 381.227C726.052 383.617 724.526 387.635 722.97 389.432C722.217 390.875 721.414 391.216 719.952 391.705C719.231 393.546 720.606 394.058 722.01 395.183C724.964 397.55 725.201 407.203 726.047 411.164C724.799 412.071 724.472 412.276 722.931 412.289C720.172 410.774 719.634 409.984 718.536 407.095C718.792 406.469 718.958 405.872 718.978 405.193C719.054 402.622 719.024 399.271 717.071 397.347C713.072 393.407 703.47 394.721 698.354 394.824C698.415 394.907 698.48 394.988 698.538 395.074C699.983 397.224 698.864 408.957 698.349 411.745L692.649 411.469C693.936 405.198 694.483 379.126 692.558 373.285ZM697.893 377.921C699.273 380.798 699.501 385.467 698.549 388.534C698.358 389.152 698.04 389.711 697.68 390.243C701.695 390.302 713.751 391.525 716.495 388.836C716.821 388.517 717.033 388.3 717.18 387.86C718.459 386.698 720.243 384.795 720.342 382.978C720.393 382.047 719.904 381.212 719.258 380.561C715.401 376.681 705.955 377.512 700.964 377.739C699.94 377.785 698.913 377.82 697.893 377.921Z"/>
	<path fill="white" d="M906.74 372.622Q907.582 372.496 908.43 372.424C914.965 371.86 921.161 372.009 926.429 376.487C930.53 379.973 932.617 385.017 932.999 390.317C933.396 395.84 932.066 401.61 928.367 405.85C925.407 409.243 921.647 411.232 917.182 411.562C913.674 412.307 909.016 412.001 905.602 410.856C901.197 409.379 897.711 406.203 895.671 402.049C893.143 396.901 892.768 390.556 894.646 385.14C896.893 378.659 900.766 375.527 906.74 372.622ZM908.573 377.259C904.128 379.7 901.566 382.049 900.118 387.039C898.804 391.565 899.165 396.788 901.489 400.934C903.168 403.927 905.824 405.992 909.126 406.909C911.558 407.583 914.049 407.44 916.515 407.07C920.436 406.048 923.326 404.022 925.378 400.479C927.654 396.55 927.982 391.646 926.764 387.322C925.667 383.424 923.207 380.156 919.659 378.174C916 376.13 912.491 376.612 908.573 377.259Z"/>
	<path fill="white" d="M1160.99 372.623C1167.5 371.77 1174.08 371.724 1179.67 375.664C1183.94 378.677 1186.5 383.345 1187.36 388.447C1188.27 393.885 1187.37 399.923 1184.1 404.462C1181.29 408.361 1177.36 410.632 1172.68 411.426C1169.27 412.039 1165.28 412.228 1161.91 411.325Q1161.02 411.084 1160.15 410.756Q1159.29 410.429 1158.46 410.017Q1157.63 409.606 1156.84 409.114Q1156.06 408.623 1155.33 408.057Q1154.6 407.49 1153.92 406.855Q1153.25 406.219 1152.64 405.52Q1152.04 404.821 1151.5 404.066Q1150.97 403.31 1150.51 402.506C1147.73 397.597 1147.17 391.459 1148.68 386.049C1150.71 378.733 1154.77 376.092 1160.99 372.623ZM1162.7 377.26C1157.91 380.482 1155.26 383.314 1154.1 389.105C1153.24 393.375 1154 398.309 1156.47 401.947C1158.31 404.659 1161.47 406.618 1164.7 407.202C1166.63 407.55 1168.71 407.424 1170.62 407.07C1174.53 406.062 1177.53 404.295 1179.61 400.726C1181.97 396.691 1182.37 391.601 1181.15 387.128C1180.15 383.476 1177.87 380.267 1174.54 378.4C1170.73 376.259 1166.86 376.54 1162.7 377.26Z"/>
	<path fill="white" d="M760.789 372.623C767.272 371.728 773.955 371.711 779.456 375.743C783.802 378.928 786.367 383.847 787.12 389.124C787.896 394.556 786.751 400.399 783.381 404.804C780.555 408.499 776.631 410.86 772.025 411.46C768.35 412.366 763.342 412.057 759.736 410.853C755.233 409.349 751.747 406.155 749.677 401.901C747.174 396.759 746.863 390.454 748.754 385.068C750.937 378.851 755.003 375.382 760.789 372.623ZM762.457 377.259C758.03 379.814 755.527 382.283 754.159 387.324C752.911 391.925 753.428 397.216 755.835 401.367C757.46 404.169 759.885 406.119 763.047 406.946C765.469 407.58 767.961 407.48 770.408 407.07C774.469 406.071 777.285 404.188 779.448 400.554C781.689 396.788 782.047 392.024 780.965 387.833C779.931 383.833 777.517 380.418 773.926 378.332C770.244 376.192 766.49 376.537 762.457 377.259Z"/>
	<path fill="white" d="M1180.1 74.5243C1189.32 73.5351 1200.4 73.5118 1209.59 74.7058C1209.96 75.2825 1210.25 75.8599 1210.39 76.5413C1211.14 80.4333 1211.33 97.823 1209.4 100.808C1196.17 100.284 1181.6 101.04 1169.02 105.501C1139.35 116.025 1120.29 148.527 1116.35 178.65C1114.14 195.521 1115.54 213.858 1115.56 230.882C1115.57 252.659 1115.31 274.472 1115.55 296.245C1115.62 302.983 1117.26 320.324 1114.66 325.776Q1097.52 325.558 1080.38 325.807C1080.68 325.311 1080.87 324.817 1081.03 324.261C1081.75 321.738 1081.4 319.262 1080.16 316.972C1080.52 316.452 1080.82 315.903 1080.98 315.289C1082.34 310.309 1081.33 276.395 1081.33 268.732L1081.32 132.027C1081.32 124.515 1082.46 79.3744 1080.12 75.4361C1090.59 74.8222 1101.31 75.2721 1111.81 75.2853C1111.96 75.5101 1111.99 75.5386 1112.11 75.7518C1113.97 79.0638 1113.45 109.715 1112.06 114.371C1114.96 112.647 1120.57 103.703 1123.11 100.671C1137.59 83.4399 1159.1 78.4394 1180.1 74.5243Z"/>
	<path fill="white" d="M1267.41 0L1301.3 0C1301.65 0.538691 1301.95 1.08107 1302.16 1.68827C1303.18 4.59782 1303.18 66.058 1302.53 72.8841C1302.45 73.7242 1302.08 74.5269 1301.69 75.2618L1353.5 75.3144C1353.63 75.5211 1353.63 75.5132 1353.72 75.7038C1353.76 75.7811 1353.79 75.8597 1353.83 75.9372C1354.1 76.5107 1354.34 77.0768 1354.48 77.6981C1355.3 81.3114 1355.41 97.5594 1353.49 100.736L1301.63 100.83C1302.42 101.917 1302.5 103.124 1302.57 104.422C1303.36 118.431 1302.57 132.932 1302.56 146.995L1302.51 233.588C1302.5 249.14 1300.83 270.237 1304.01 285.126C1305.22 290.837 1306.53 294.612 1311.61 297.872C1321.85 304.431 1341.89 302.735 1353.55 300.113C1353.92 300.626 1354.23 301.178 1354.37 301.801C1355.29 305.838 1355.42 323.412 1353.47 326.66C1334.47 326.086 1316.02 329.962 1297.19 324.695C1285.65 321.466 1277.33 315.24 1272.81 303.945C1270.07 297.106 1269.25 289.605 1268.73 282.307C1267.44 264.186 1268.43 245.322 1268.43 227.117L1268.41 130.459C1268.44 124.267 1270.04 105.35 1267.48 100.758Q1249.83 100.715 1232.18 100.879C1232.5 100.338 1232.77 99.6986 1232.94 99.085C1233.97 95.2572 1233.85 78.1883 1232.17 75.2535L1267.33 75.3101C1267.68 74.7624 1267.98 74.2009 1268.16 73.5706C1269.43 69.1411 1268.84 10.8127 1268.36 3.24494C1268.28 2.0672 1267.96 1.04619 1267.41 0Z"/>
	<path fill="white" d="M439.545 75.2853Q460.395 75.0921 481.243 75.3961C481.362 76.6542 480.867 77.3852 480.185 78.3976C471.208 91.7124 460.251 104.38 450.432 117.117L390.584 194.692C414.85 227.931 440.603 260.267 465.626 292.949C469.505 298.017 486.81 318.997 488.427 323.303C488.617 323.809 488.558 324.849 488.607 325.422C482.476 325.989 476.096 325.67 469.932 325.677L447.39 325.708C447.442 324.091 375.521 230.683 368.582 221.953C355.73 241.155 340.669 259.485 326.786 277.989C315.071 293.604 303.506 311.013 290.68 325.602C276.949 326.108 263.048 325.691 249.302 325.579C282.143 281.868 316.57 239.212 348.786 195.051C338.921 183.068 329.804 170.216 320.382 157.866L257.389 75.534C271.36 74.8255 285.499 75.2658 299.49 75.2889C322.545 106.596 347.13 136.821 370.445 167.944C376.814 160.678 438.922 78.673 439.545 75.2853Z"/>
	<path fill="white" d="M919.236 67.9003C931.227 66.1208 953.409 69.9671 964.929 74.2526C991.647 84.1927 1011.9 105.327 1023.59 130.981C1032.2 149.884 1035.26 169.569 1037.04 190.077C1037.52 195.639 1038.62 203.26 1036.65 208.542C1032.32 209.365 1026.53 208.71 1022.09 208.714L983.296 208.62L839.461 208.701C841.735 212.335 840.946 220.792 841.474 225.28C844.375 249.963 855.913 274.264 875.577 289.817C893.254 303.797 913.543 308.366 935.734 305.713C954.932 303.417 972.173 295.196 984.231 279.802C987.266 275.927 995.625 265.164 995.088 260.669C995.778 260.176 996.202 259.657 996.62 258.919C998.784 255.104 1002.45 246.659 1001.29 242.376C1012.56 242.323 1023.89 242.077 1035.16 242.466C1035.18 242.667 1035.21 242.867 1035.22 243.069C1035.23 243.182 1035.24 243.295 1035.25 243.409C1036.31 256.619 1021.12 284.118 1013.04 294.573C995.963 316.669 973.527 327.333 946.106 330.81C913.413 334.955 877.782 331.003 851.093 310.276C825.06 290.057 812.207 258.21 808.22 226.23C803.148 185.542 809.348 140.359 835.207 107.248C852.478 85.1341 876.837 72.7435 904.293 68.729C909.285 67.9991 914.251 68.5089 919.236 67.9003ZM920.832 93.7352C897.331 96.5193 878.479 104.232 863.456 123.279C855.318 133.597 848.867 146.671 845.273 159.292C843.619 165.102 842.357 177.939 839.336 182.228L921.491 182.231C948.321 182.231 975.471 181.319 1002.26 182.304C1005.33 176.75 1000.44 160.559 998.711 154.602C992.435 132.93 978.71 113.931 958.819 102.973C947.646 96.8181 933.609 93.2258 920.832 93.7352Z"/>
	<path fill="white" d="M0.602591 192.031C2.43161 157.257 13.2372 119.286 39.9534 95.235C64.6606 72.9921 94.6645 66.3615 127.167 68.1158C155.238 69.6308 179.983 80.9179 198.85 101.945C224.677 130.729 231.834 171.221 230.845 208.7C165.466 208.551 99.9234 207.703 34.5616 208.712C34.3122 235.435 42.4131 263.199 61.4494 282.597C76.3612 297.792 94.8797 306.157 116.223 306.323C137.359 306.488 156.559 301.342 171.95 286.17C184.884 273.421 190.868 259.36 196.421 242.32C207.538 242.317 218.948 241.781 230.029 242.467C222.733 272.293 209.298 300.649 182.151 317.14C155.595 333.272 112.7 335.728 83.1547 328.484C56.966 322.063 34.8372 306.272 20.8432 283.136C7.33662 260.806 1.90338 235.111 0.596618 209.289L0 209.103L0 191.83L0.602591 192.031ZM116.638 93.656C93.0428 95.7461 74.1882 103.074 58.6215 121.668C44.926 138.027 36.3682 161.106 34.3706 182.239L116.2 182.231C143.259 182.233 170.484 181.576 197.522 182.303C194.215 154.511 186.672 128.405 163.748 110.31C149.661 99.1896 134.368 94.636 116.638 93.656ZM0 191.83L0 209.103L0.596618 209.289C0.75714 203.547 0.624938 197.776 0.602591 192.031L0 191.83Z"/>
	<path fill="white" fill-opacity="0.39607844" d="M0 191.83L0.602591 192.031C0.624938 197.776 0.75714 203.547 0.596618 209.289L0 209.103L0 191.83Z"/>
	<path fill="white" d="M556.286 118.881L556.435 118.747C561.936 113.739 566.522 103.338 572.231 96.9557C593.222 73.489 626.942 66.8329 656.982 68.049C686.441 69.2414 712.142 80.3376 732.193 102.146C758.454 130.709 766.218 172.375 764.575 209.992C763.096 243.855 751.953 280.848 726.304 304.366C702.016 326.637 672.498 333.226 640.299 331.753C614.526 330.575 589.464 320.19 571.973 300.93C567.27 295.752 563.424 285.504 558.699 281.783C559.431 283.509 559.776 285.218 559.86 287.09C560.471 300.574 561.011 412.394 559.283 418L558.766 418L526.814 418L526.807 417.548C525.305 410.72 526.247 401.897 526.266 394.853L526.372 352.092L526.362 171.013L526.367 110.946C526.367 100.404 526.762 89.6842 526.256 79.1603C526.189 77.7637 525.833 76.535 525.104 75.3448C535.512 75.2984 545.96 75.0828 556.364 75.3366C558.489 78.6486 558.332 111.37 557.304 116.334C557.119 117.23 556.751 118.097 556.286 118.881ZM644.387 93.7351C617.864 96.4522 598.382 101.951 580.835 123.565C561.043 147.944 557.945 186.949 561.062 216.941C563.868 243.938 573.385 270.856 595.062 288.409C608.975 299.676 627.37 306.693 645.391 306.213C667.208 306.407 685.033 300.609 700.818 285.081C722.572 263.685 730.787 231.03 731.04 201.319C731.291 171.933 723.342 137.834 702.144 116.299C687.12 101.037 667.925 93.7406 646.634 93.6543Q645.509 93.6545 644.387 93.7351ZM526.807 417.548L526.814 418L558.766 418C553.9 415.938 533.09 417.242 526.807 417.548Z"/>
	<path fill="white" fill-opacity="0.11372549" d="M526.807 417.548C533.09 417.242 553.9 415.938 558.766 418L526.814 418L526.807 417.548Z"/>
</svg>
